<?xml version="1.0" encoding="UTF-8" standalone="no"?>
<!DOCTYPE svg PUBLIC "-//W3C//DTD SVG 1.1//EN" "http://www.w3.org/Graphics/SVG/1.1/DTD/svg11.dtd">
<svg width="100%" height="100%" viewBox="0 0 512 512" version="1.1" xmlns="http://www.w3.org/2000/svg" xmlns:xlink="http://www.w3.org/1999/xlink" xml:space="preserve" xmlns:serif="http://www.serif.com/" style="fill-rule:evenodd;clip-rule:evenodd;stroke-linejoin:round;stroke-miterlimit:2;">
    <g transform="matrix(1,0,0,1,-601.12,-64.2166)">
        <g id="favicon" transform="matrix(10.6667,0,0,10.6667,-2798.59,64.2166)">
            <rect x="318.723" y="0" width="48" height="48" style="fill:none;"/>
            <clipPath id="_clip1">
                <rect x="318.723" y="0" width="48" height="48"/>
            </clipPath>
            <g clip-path="url(#_clip1)">
                <g transform="matrix(0.100493,0,0,0.100493,308.997,-6.26607)">
                    <path d="M96.776,540L96.776,62.353L574.422,62.353L574.422,540L96.776,540ZM338.336,99.111L133.533,99.111L133.533,503.243L191.406,503.243L191.406,209.284L338.336,209.284L338.336,99.111ZM537.665,99.111L375.093,99.111L375.093,356.312L485.365,356.312L485.365,393.069L228.163,393.069L228.163,503.243L537.665,503.243L537.665,99.111ZM338.336,356.312L338.336,246.041L228.163,246.041L228.163,356.312L338.336,356.312Z" style="fill:rgb(0,100,202);"/>
                </g>
            </g>
        </g>
    </g>
</svg>
