<?xml version="1.0" encoding="UTF-8" standalone="no"?>
<!DOCTYPE svg PUBLIC "-//W3C//DTD SVG 1.1//EN" "http://www.w3.org/Graphics/SVG/1.1/DTD/svg11.dtd">
<svg width="100%" height="100%" viewBox="0 0 16 16" version="1.1" xmlns="http://www.w3.org/2000/svg" xmlns:xlink="http://www.w3.org/1999/xlink" xml:space="preserve" xmlns:serif="http://www.serif.com/" style="fill-rule:evenodd;clip-rule:evenodd;stroke-linejoin:round;stroke-miterlimit:2;">
    <g transform="matrix(0.32,0,0,0.32,0,0)">
        <rect id="Icon_VisualStorytelling" x="0" y="0" width="48" height="48" style="fill:none;"/>
        <g id="Icon_VisualStorytelling1" serif:id="Icon_VisualStorytelling">
            <g transform="matrix(0.0630291,0,0,0.0630291,22.5957,22.3816)">
                <g transform="matrix(1.05216,0,0,1.05216,-2226.07,-811.445)">
                    <path d="M2319.94,469.648C2402.09,469.648 2468.79,536.342 2468.79,618.491C2468.79,700.64 2402.09,767.335 2319.94,767.335C2237.8,767.335 2171.1,700.64 2171.1,618.491C2171.1,536.342 2237.8,469.648 2319.94,469.648ZM2319.94,526.195C2269,526.195 2227.65,567.551 2227.65,618.491C2227.65,669.431 2269,710.788 2319.94,710.788C2370.88,710.788 2412.24,669.431 2412.24,618.491C2412.24,567.551 2370.88,526.195 2319.94,526.195Z" style="fill:rgb(0,122,255);"/>
                </g>
                <g transform="matrix(1.40074,0,0,2.55525,-2943.29,-1786.12)">
                    <path d="M2106.67,572.031L2106.67,639.956L1867.89,639.956L1867.89,572.031L2106.67,572.031ZM2064.2,595.315L1910.37,595.315L1910.37,616.672L2064.2,616.672L2064.2,595.315Z" style="fill:rgb(0,122,255);"/>
                </g>
            </g>
            <g transform="matrix(0.110162,0,0,0.110162,-207.93,-58.792)">
                <path d="M2104.33,950.633L1905.6,950.633L2061.12,681.265L2160.49,853.372L2104.33,950.633ZM2084.68,916.592C2084.68,916.592 2121.18,853.372 2121.18,853.372C2121.18,853.372 2061.12,749.346 2061.12,749.347C2061.12,749.347 1964.56,916.592 1964.56,916.592L2084.68,916.592Z" style="fill:rgb(0,122,255);"/>
            </g>
            <g transform="matrix(0.078469,0,0,0.078469,-144.89,-41.9209)">
                <path d="M2106.67,1119.58L2264.34,846.495L2422.01,1119.58L2106.67,1119.58ZM2189.45,1071.79L2339.23,1071.79L2264.34,942.074L2189.45,1071.79Z" style="fill:rgb(0,122,255);"/>
            </g>
        </g>
    </g>
</svg>
