<?xml version="1.0" encoding="UTF-8" standalone="no"?>
<!DOCTYPE svg PUBLIC "-//W3C//DTD SVG 1.1//EN" "http://www.w3.org/Graphics/SVG/1.1/DTD/svg11.dtd">
<svg width="100%" height="100%" viewBox="0 0 48 48" version="1.1" xmlns="http://www.w3.org/2000/svg" xmlns:xlink="http://www.w3.org/1999/xlink" xml:space="preserve" xmlns:serif="http://www.serif.com/" style="fill-rule:evenodd;clip-rule:evenodd;stroke-linejoin:round;stroke-miterlimit:2;">
    <g transform="matrix(1,0,0,1,-458.152,-64.2166)">
        <g id="Icons_Illustrator" transform="matrix(1,0,0,1,139.429,64.2166)">
            <rect x="318.723" y="0" width="48" height="48" style="fill:none;"/>
            <g transform="matrix(0.143263,0,0,0.143263,-80.2819,-196.984)">
                <g transform="matrix(1,0,0,1,1262.6,-472.748)">
                    <path d="M1781.68,1865.84C1814.36,1865.84 1840.86,1892.33 1840.86,1925.01L1840.86,2108.27C1840.86,2140.95 1814.36,2167.44 1781.68,2167.44L1598.42,2167.44C1565.74,2167.44 1539.25,2140.95 1539.25,2108.27L1539.25,1925.01C1539.25,1892.33 1565.74,1865.84 1598.42,1865.84L1781.68,1865.84Z" style="fill:rgb(52,1,0);"/>
                </g>
                <g transform="matrix(0.679736,0,0,0.679736,1442.18,875.512)">
                    <path d="M2369.82,931.865L2369.82,1112.14L2319.37,1112.14L2319.37,931.865L2369.82,931.865ZM2344.14,855.184C2359.98,855.184 2372.85,867.909 2372.85,883.583C2372.85,899.258 2359.98,911.983 2344.14,911.983C2328.29,911.983 2315.43,899.258 2315.43,883.583C2315.43,867.909 2328.29,855.184 2344.14,855.184ZM2149.65,887.102L2149.65,873.942L2211.39,873.942L2210.98,874.723L2212.2,874.378L2296.43,1112.23L2243.5,1112.23C2243.5,1112.23 2235.72,1087.88 2225.26,1055.16L2137.22,1055.16C2127.4,1087.23 2119.9,1111.7 2119.9,1111.7L2071.45,1111.7L2149.65,887.102ZM2151.23,1009.38L2210.62,1009.38C2199.5,974.592 2187.96,938.502 2180.27,914.418C2175.1,931.369 2163.15,970.44 2151.23,1009.38Z" style="fill:rgb(254,153,0);"/>
                </g>
            </g>
        </g>
    </g>
</svg>
