<?xml version="1.0" encoding="UTF-8" standalone="no"?>
<!DOCTYPE svg PUBLIC "-//W3C//DTD SVG 1.1//EN" "http://www.w3.org/Graphics/SVG/1.1/DTD/svg11.dtd">
<svg width="100%" height="100%" viewBox="0 0 48 48" version="1.1" xmlns="http://www.w3.org/2000/svg" xmlns:xlink="http://www.w3.org/1999/xlink" xml:space="preserve" xmlns:serif="http://www.serif.com/" style="fill-rule:evenodd;clip-rule:evenodd;stroke-linejoin:round;stroke-miterlimit:2;">
    <g id="Icons_C-" serif:id="Icons_C+" transform="matrix(1,0,0,1,-318.723,0)">
        <g>
            <rect x="318.723" y="0" width="48" height="48" style="fill:none;"/>
            <g transform="matrix(0.143263,0,0,0.143263,5.87328,-123.695)">
                <g transform="matrix(1,0,0,1,661.219,-984.428)">
                    <path d="M1781.68,1865.84C1814.36,1865.84 1840.86,1892.33 1840.86,1925.01L1840.86,2108.27C1840.86,2140.95 1814.36,2167.44 1781.68,2167.44L1598.42,2167.44C1565.74,2167.44 1539.25,2140.95 1539.25,2108.27L1539.25,1925.01C1539.25,1892.33 1565.74,1865.84 1598.42,1865.84L1781.68,1865.84Z"/>
                </g>
                <g transform="matrix(1.05678,0,0,1.05678,57.2333,-851.451)">
                    <g transform="matrix(0.826963,0,0,0.736557,1460.69,698.903)">
                        <path d="M722.058,1559.58C719.936,1555.22 718.77,1550.26 718.77,1545.12L718.77,1397.09C718.77,1386.35 723.857,1376.42 732.127,1371.02L845.165,1297.2C853.515,1291.75 863.829,1291.75 872.179,1297.2L985.217,1371.02C989.652,1373.92 993.172,1378.12 995.482,1383.05L940.688,1418.42C924.482,1386.34 893.784,1364.68 858.615,1364.68C806.578,1364.68 764.331,1412.11 764.331,1470.53C764.331,1490.02 769.029,1508.28 777.222,1523.96C793.597,1555.32 823.931,1576.39 858.615,1576.39C893.274,1576.39 923.589,1555.35 939.973,1524.03L995.2,1559.75C992.889,1564.43 989.475,1568.41 985.217,1571.19L872.179,1645.01C863.829,1650.46 853.515,1650.46 845.165,1645.01L732.127,1571.19C727.816,1568.38 724.37,1564.33 722.058,1559.58ZM898.351,1497.11C890.274,1512.29 875.494,1522.46 858.615,1522.46C841.724,1522.46 826.935,1512.28 818.862,1497.08C814.734,1489.31 812.361,1480.23 812.361,1470.53C812.361,1441.87 833.087,1418.6 858.615,1418.6C875.992,1418.6 891.144,1429.38 899.048,1445.31L858.615,1471.41L898.351,1497.11ZM931.619,1477.49L921.013,1477.49L921.013,1465.74L931.619,1465.74L931.619,1453.83L942.087,1453.83L942.087,1465.74L952.693,1465.74L952.693,1477.49L942.087,1477.49L942.087,1489.4L931.619,1489.4L931.619,1477.49Z" style="fill:rgb(0,158,255);"/>
                    </g>
                    <g transform="matrix(0.761473,0,0,0.761473,1523.7,659.014)">
                        <path d="M701.419,1560.93C699.114,1556.71 697.848,1551.92 697.848,1546.94L697.848,1403.76C697.848,1393.37 703.373,1383.77 712.354,1378.54L835.114,1307.14C844.181,1301.87 855.383,1301.87 864.451,1307.14L987.21,1378.54C992.027,1381.35 995.849,1385.41 998.359,1390.17L938.852,1424.39C921.252,1393.36 887.914,1372.41 849.721,1372.41C793.209,1372.41 747.328,1418.29 747.328,1474.8C747.328,1493.64 752.43,1511.31 761.327,1526.48C779.11,1556.81 812.054,1577.19 849.721,1577.19C887.36,1577.19 920.283,1556.84 938.075,1526.55L998.052,1561.1C995.543,1565.62 991.835,1569.47 987.21,1572.16L864.451,1643.57C855.383,1648.84 844.181,1648.84 835.114,1643.57L712.354,1572.16C707.672,1569.44 703.93,1565.53 701.419,1560.93ZM938.075,1526.55L892.874,1500.51C884.102,1515.19 868.052,1525.03 849.721,1525.03C831.376,1525.03 815.316,1515.18 806.548,1500.48C802.065,1492.96 799.489,1484.18 799.489,1474.8C799.489,1447.08 821.997,1424.57 849.721,1424.57C868.592,1424.57 885.046,1435 893.631,1450.4L938.852,1424.39C947.293,1439.28 952.114,1456.48 952.114,1474.8C952.114,1493.67 946.997,1511.36 938.075,1526.55Z" style="fill:rgb(0,158,255);"/>
                    </g>
                    <g transform="matrix(0.761473,0,0,0.761473,1522.17,659.014)">
                        <path d="M931.003,1481.53L919.485,1481.53L919.485,1470.16L931.003,1470.16L931.003,1458.64L942.372,1458.64L942.372,1470.16L953.89,1470.16L953.89,1481.53L942.372,1481.53L942.372,1493.05L931.003,1493.05L931.003,1481.53Z" style="fill:white;"/>
                    </g>
                    <g transform="matrix(0.761473,0,0,0.761473,1523.7,659.014)">
                        <path d="M998.359,1390.17C1000.53,1394.3 1001.72,1398.94 1001.72,1403.76L1001.72,1546.94C1001.72,1551.98 1000.42,1556.84 998.052,1561.1L938.075,1526.55C946.997,1511.36 952.114,1493.67 952.114,1474.8C952.114,1456.48 947.293,1439.28 938.852,1424.39L998.359,1390.17Z" style="fill:rgb(0,100,202);"/>
                    </g>
                    <g transform="matrix(0.761473,0,0,0.761473,1523.7,659.014)">
                        <path d="M998.359,1390.17C1000.53,1394.3 1001.72,1398.94 1001.72,1403.76L1001.72,1546.94C1001.72,1551.98 1000.42,1556.84 998.052,1561.1L849.721,1475.65L998.359,1390.17ZM929.003,1481.53L929.003,1493.05L940.372,1493.05L940.372,1481.53L951.89,1481.53L951.89,1470.16L940.372,1470.16L940.372,1458.64L929.003,1458.64L929.003,1470.16L917.485,1470.16L917.485,1481.53L929.003,1481.53Z" style="fill:rgb(0,100,202);"/>
                        <g transform="matrix(8.67415,0,0,8.67415,641.59,1265.59)">
                            <path d="M36.117,19.469L29.89,23.717L31.191,26.812L34.707,28.101L38.698,30.004L39.505,21.175L36.355,19.461" style="fill:rgb(0,100,202);"/>
                        </g>
                        <g transform="matrix(1.56334,0,0,1.04831,-1436.17,-394.683)">
                            <g transform="matrix(50,0,0,50,1538.62,1805.61)">
                            </g>
                            <text x="1504.62px" y="1805.61px" style="font-family:'Futura-Bold', 'Futura', sans-serif;font-weight:700;font-size:50px;fill:white;">#</text>
                        </g>
                    </g>
                    <g transform="matrix(0.761473,0,0,0.761473,1523.7,659.014)">
                        <path d="M761.327,1526.48C752.43,1511.31 747.328,1493.64 747.328,1474.8C747.328,1418.29 793.209,1372.41 849.721,1372.41C887.914,1372.41 921.252,1393.36 938.852,1424.39L893.631,1450.4C885.046,1435 868.592,1424.57 849.721,1424.57C821.997,1424.57 799.489,1447.08 799.489,1474.8C799.489,1484.18 802.065,1492.96 806.548,1500.48C815.316,1515.18 831.376,1525.03 849.721,1525.03C868.052,1525.03 884.102,1515.19 892.874,1500.51L938.075,1526.55C920.283,1556.84 887.36,1577.19 849.721,1577.19C812.054,1577.19 779.11,1556.81 761.327,1526.48Z" style="fill:white;"/>
                    </g>
                    <g transform="matrix(0.761473,0,0,0.761473,1523.73,658.789)">
                        <path d="M998.052,1561.1C995.543,1565.62 991.835,1569.47 987.21,1572.16L864.451,1643.57C855.383,1648.84 844.181,1648.84 835.114,1643.57L712.354,1572.16C707.672,1569.44 703.93,1565.53 701.419,1560.93L761.327,1526.48C779.11,1556.81 812.054,1577.19 849.721,1577.19C887.36,1577.19 920.283,1556.84 938.075,1526.55L998.052,1561.1ZM892.874,1500.51C884.102,1515.19 868.052,1525.03 849.721,1525.03C831.376,1525.03 815.316,1515.18 806.548,1500.48L849.721,1475.65L892.874,1500.51Z" style="fill:rgb(0,77,171);"/>
                    </g>
                </g>
            </g>
        </g>
    </g>
</svg>
