<?xml version="1.0" encoding="UTF-8" standalone="no"?>
<!DOCTYPE svg PUBLIC "-//W3C//DTD SVG 1.1//EN" "http://www.w3.org/Graphics/SVG/1.1/DTD/svg11.dtd">
<svg width="100%" height="100%" viewBox="0 0 20 20" version="1.1" xmlns="http://www.w3.org/2000/svg" xmlns:xlink="http://www.w3.org/1999/xlink" xml:space="preserve" xmlns:serif="http://www.serif.com/" style="fill-rule:evenodd;clip-rule:evenodd;stroke-linejoin:round;stroke-miterlimit:2;">
    <g transform="matrix(0.4,0,0,0.4,-129.625,-25.6866)">
        <g id="Icons_Lightroom" transform="matrix(1,0,0,1,5.33926,64.2166)">
            <rect x="318.723" y="0" width="48" height="48" style="fill:none;"/>
            <g transform="matrix(0.143263,0,0,0.143263,28.299,-196.984)">
                <g transform="matrix(1,0,0,1,504.683,-472.748)">
                    <path d="M1781.68,1865.84C1814.36,1865.84 1840.86,1892.33 1840.86,1925.01L1840.86,2108.27C1840.86,2140.95 1814.36,2167.44 1781.68,2167.44L1598.42,2167.44C1565.74,2167.44 1539.25,2140.95 1539.25,2108.27L1539.25,1925.01C1539.25,1892.33 1565.74,1865.84 1598.42,1865.84L1781.68,1865.84Z" style="fill:rgb(0,30,54);"/>
                </g>
                <g transform="matrix(0.81427,0,0,0.800321,739.679,1296.61)">
                    <g transform="matrix(1.80575,0,0,0.951294,626.691,-1531.75)">
                        <path d="M682.943,1906.11C682.943,1906.11 684.396,1901.24 691.05,1892.11C697.704,1882.98 712.304,1877.75 712.304,1882.26L712.304,1922.79C712.304,1925.91 712.042,1926.13 709.161,1926.13C706.279,1926.13 701.158,1924.84 689.281,1934.03C687.184,1935.65 685.473,1937.92 684.105,1940.58L684.105,2050.08L659.637,2050.08L659.637,1934.03C659.637,1934.03 659.529,1909.58 659.637,1899.41C659.744,1889.23 658.295,1883.88 659.637,1883.88C660.979,1883.88 675.982,1882.99 678.64,1883.88C681.298,1884.76 681.289,1887.18 682.943,1906.11Z" style="fill:rgb(49,168,255);"/>
                    </g>
                    <path d="M1792.73,418.348L1660.95,418.348L1660.95,208.321L1703.68,208.321L1703.68,378.626L1797.96,378.626L1792.73,418.348Z" style="fill:rgb(49,168,255);"/>
                </g>
            </g>
        </g>
    </g>
</svg>
