<?xml version="1.0" encoding="UTF-8" standalone="no"?>
<!DOCTYPE svg PUBLIC "-//W3C//DTD SVG 1.1//EN" "http://www.w3.org/Graphics/SVG/1.1/DTD/svg11.dtd">
<svg width="100%" height="100%" viewBox="0 0 48 48" version="1.1" xmlns="http://www.w3.org/2000/svg" xmlns:xlink="http://www.w3.org/1999/xlink" xml:space="preserve" xmlns:serif="http://www.serif.com/" style="fill-rule:evenodd;clip-rule:evenodd;stroke-linejoin:round;stroke-miterlimit:2;">
    <g transform="matrix(1,0,0,1,-390.756,0)">
        <g id="Icons_HTML" transform="matrix(1,0,0,1,72.033,0)">
            <rect x="318.723" y="0" width="48" height="48" style="fill:none;"/>
            <g transform="matrix(0.143263,0,0,0.143263,5.87328,-123.695)">
                <g transform="matrix(1,0,0,1,661.219,-984.428)">
                    <path d="M1781.68,1865.84C1814.36,1865.84 1840.86,1892.33 1840.86,1925.01L1840.86,2108.27C1840.86,2140.95 1814.36,2167.44 1781.68,2167.44L1598.42,2167.44C1565.74,2167.44 1539.25,2140.95 1539.25,2108.27L1539.25,1925.01C1539.25,1892.33 1565.74,1865.84 1598.42,1865.84L1781.68,1865.84Z"/>
                </g>
                <g transform="matrix(0.146097,0,0,0.146097,2248.49,893.508)">
                    <path d="M702.643,1747.26L128.052,1587.74L0,151.525L1407.03,151.525L1278.84,1587.51L702.643,1747.26Z" style="fill:rgb(235,90,51);fill-rule:nonzero;"/>
                    <path d="M1278.84,1587.51L1407.03,151.525L702.907,151.525L702.643,1747.26L1278.84,1587.51Z" style="fill:rgb(243,110,54);fill-rule:nonzero;"/>
                    <path d="M703.513,977.773L703.513,801.629L470.436,801.629L454.336,621.242L703.513,621.242L703.513,445.098L261.827,445.098L266.032,492.355L309.332,977.773L703.513,977.773Z" style="fill:rgb(235,236,236);fill-rule:nonzero;"/>
                    <path d="M703.513,1259.09L702.736,1259.3L506.575,1206.33L494.037,1065.84L317.21,1065.84L341.89,1342.41L702.699,1442.58L703.513,1442.36L703.513,1259.09Z" style="fill:rgb(235,236,236);fill-rule:nonzero;"/>
                    <path d="M1112.36,801.629L702.907,801.629L702.907,977.773L919.809,977.773L899.352,1206.21L702.907,1259.24L702.907,1442.49L1064,1342.41L1066.65,1312.66L1108.06,848.923L1112.36,801.629Z" style="fill:white;fill-rule:nonzero;"/>
                    <path d="M1144.16,445.098L702.907,445.098L702.907,621.242L1128.38,621.242L1131.9,581.657L1139.94,492.355L1144.16,445.098Z" style="fill:white;fill-rule:nonzero;"/>
                </g>
            </g>
        </g>
    </g>
</svg>
