<?xml version="1.0" encoding="UTF-8" standalone="no"?>
<!DOCTYPE svg PUBLIC "-//W3C//DTD SVG 1.1//EN" "http://www.w3.org/Graphics/SVG/1.1/DTD/svg11.dtd">
<svg width="100%" height="100%" viewBox="0 0 48 48" version="1.1" xmlns="http://www.w3.org/2000/svg" xmlns:xlink="http://www.w3.org/1999/xlink" xml:space="preserve" xmlns:serif="http://www.serif.com/" style="fill-rule:evenodd;clip-rule:evenodd;stroke-linejoin:round;stroke-miterlimit:2;">
    <g transform="matrix(1,0,0,1,-257.253,-64.2166)">
        <g id="Icons_Photoshop" transform="matrix(1,0,0,1,-61.4696,64.2166)">
            <rect x="318.723" y="0" width="48" height="48" style="fill:none;"/>
            <g transform="matrix(0.143263,0,0,0.143263,-74.6057,-138.343)">
                <g transform="matrix(1,0,0,1,1222.98,-882.075)">
                    <path d="M1781.68,1865.84C1814.36,1865.84 1840.86,1892.33 1840.86,1925.01L1840.86,2108.27C1840.86,2140.95 1814.36,2167.44 1781.68,2167.44L1598.42,2167.44C1565.74,2167.44 1539.25,2140.95 1539.25,2108.27L1539.25,1925.01C1539.25,1892.33 1565.74,1865.84 1598.42,1865.84L1781.68,1865.84Z" style="fill:rgb(0,0,91);"/>
                </g>
                <g transform="matrix(0.855689,0,0,0.832349,2356.9,-66.0805)">
                    <g transform="matrix(1.68201,0,0,1.66004,-594.253,-1859.32)">
                        <path d="M660.856,1933.18C660.856,1933.18 691.123,1930.84 710.381,1934.03C729.638,1937.21 739.905,1952.27 741.455,1963.33C743.005,1974.39 744.362,1993.03 726.471,2004.85C714.992,2012.43 694.469,2013.18 683.939,2012.65L684.656,2050.08L660.856,2050.08L660.856,1933.18ZM684.711,1991.56C693.446,1991.89 707.82,1991.82 713.473,1986.39C724.616,1975.7 719.416,1958.5 705.61,1955.56C699.708,1954.3 688.133,1954.47 684.587,1954.47L684.711,1991.56Z" style="fill:rgb(49,168,255);"/>
                    </g>
                    <path d="M774.759,1405.22C774.759,1405.22 773.758,1401.38 770.235,1400.13C763.345,1397.68 734.552,1392.75 710.49,1398.13C686.427,1403.52 680.528,1419.89 678.385,1426.12C676.242,1432.34 671.672,1450.9 682.784,1463.47C693.895,1476.05 709.115,1485.76 724.892,1490.61C740.669,1495.45 742.998,1501.21 742.704,1505C742.409,1508.78 739.464,1517.03 716.806,1514.31C694.147,1511.59 680.279,1505.15 678.487,1503.39C676.696,1501.63 675.722,1501.61 675.722,1505.58L675.722,1535.87C675.722,1538.45 677.45,1539.94 680.749,1541.06C684.048,1542.18 698.33,1549.57 727.909,1547.36C757.487,1545.16 768.805,1534.2 773.318,1528.33C777.832,1522.47 790.165,1499.98 775.685,1479.07C761.206,1458.16 742.777,1457.99 728.359,1450.69C713.941,1443.4 712.001,1439 715.11,1433.53C718.218,1428.06 731.9,1426.02 744.36,1428.52C756.821,1431.02 768.788,1436.85 772.357,1436.71C775.926,1436.57 774.898,1434.37 774.898,1431.24C774.898,1428.12 774.759,1405.22 774.759,1405.22Z" style="fill:rgb(49,168,255);"/>
                </g>
            </g>
        </g>
    </g>
</svg>
