<?xml version="1.0" encoding="UTF-8" standalone="no"?>
<!DOCTYPE svg PUBLIC "-//W3C//DTD SVG 1.1//EN" "http://www.w3.org/Graphics/SVG/1.1/DTD/svg11.dtd">
<svg width="100%" height="100%" viewBox="0 0 48 48" version="1.1" xmlns="http://www.w3.org/2000/svg" xmlns:xlink="http://www.w3.org/1999/xlink" xml:space="preserve" xmlns:serif="http://www.serif.com/" style="fill-rule:evenodd;clip-rule:evenodd;stroke-linejoin:round;stroke-miterlimit:2;">
    <g transform="matrix(1,0,0,1,-62.7796,-64.2166)">
        <g id="Icons_Apple" transform="matrix(1,0,0,1,-255.943,64.2166)">
            <rect x="318.723" y="0" width="48" height="48" style="fill:none;"/>
            <g transform="matrix(1,0,0,1,60.7378,-219.648)">
                <g transform="matrix(0.143263,0,0,0.143263,39.8634,-45.0636)">
                    <path d="M1781.68,1865.84C1814.36,1865.84 1840.86,1892.33 1840.86,1925.01L1840.86,2108.27C1840.86,2140.95 1814.36,2167.44 1781.68,2167.44L1598.42,2167.44C1565.74,2167.44 1539.25,2140.95 1539.25,2108.27L1539.25,1925.01C1539.25,1892.33 1565.74,1865.84 1598.42,1865.84L1781.68,1865.84Z" style="fill:rgb(209,209,209);"/>
                </g>
                <g transform="matrix(0.0765384,0,0,0.0765384,102.797,171.564)">
                    <g transform="matrix(1,0,0,1,611.134,331.801)">
                        <path d="M1728.66,501.623C1728.66,501.623 1805.03,504.516 1813.06,406.365C1813.06,406.365 1728.55,410.656 1728.66,501.623Z" style="fill:white;"/>
                    </g>
                    <g transform="matrix(1,0,0,1,611.134,331.801)">
                        <path d="M1886.57,546.49C1886.57,546.49 1868.56,515.015 1818,506.249C1767.44,497.483 1750.48,534.253 1722.48,522.72C1694.47,511.187 1665.66,499.343 1623.01,515.789C1580.37,532.235 1550.35,596.899 1566.13,671.232C1581.91,745.565 1628.7,819.876 1667.68,818.797C1706.65,817.718 1706,800.298 1737.69,801.617C1769.39,802.936 1777.64,818.254 1806.33,818.254C1835.02,818.254 1875.04,766.918 1898.16,709.316C1898.16,709.316 1834.73,682.699 1842.23,616.337C1848.54,560.61 1886.57,546.49 1886.57,546.49Z" style="fill:white;"/>
                    </g>
                </g>
            </g>
        </g>
    </g>
</svg>
