<?xml version="1.0" encoding="UTF-8" standalone="no"?>
<!DOCTYPE svg PUBLIC "-//W3C//DTD SVG 1.1//EN" "http://www.w3.org/Graphics/SVG/1.1/DTD/svg11.dtd">
<svg width="100%" height="100%" viewBox="0 0 48 48" version="1.1" xmlns="http://www.w3.org/2000/svg" xmlns:xlink="http://www.w3.org/1999/xlink" xml:space="preserve" xmlns:serif="http://www.serif.com/" style="fill-rule:evenodd;clip-rule:evenodd;stroke-linejoin:round;stroke-miterlimit:2;">
    <g transform="matrix(1,0,0,1,-129.061,-64.2166)">
        <g id="Icons_AfterEffects" transform="matrix(1,0,0,1,-189.662,64.2166)">
            <rect x="318.723" y="0" width="48" height="48" style="fill:none;"/>
            <g transform="matrix(0.143263,0,0,0.143263,-82.1443,-201.214)">
                <g transform="matrix(1,0,0,1,1275.6,-443.22)">
                    <path d="M1781.68,1865.84C1814.36,1865.84 1840.86,1892.33 1840.86,1925.01L1840.86,2108.27C1840.86,2140.95 1814.36,2167.44 1781.68,2167.44L1598.42,2167.44C1565.74,2167.44 1539.25,2140.95 1539.25,2108.27L1539.25,1925.01C1539.25,1892.33 1565.74,1865.84 1598.42,1865.84L1781.68,1865.84Z" style="fill:rgb(0,0,91);"/>
                </g>
                <g transform="matrix(0.9301,0,0,0.945765,593.975,608.713)">
                    <g transform="matrix(1,0,0,1,500.245,20.5227)">
                        <path d="M2103.58,1041.94C2104.27,1052.31 2112.05,1066.45 2134.57,1066.45C2157.08,1066.45 2166.09,1060.54 2166.09,1060.54L2166.09,1084.43C2166.09,1086.92 2164.71,1087.68 2159.88,1089.11C2155.05,1090.53 2132.31,1096.74 2106.3,1089.65C2080.3,1082.57 2071.59,1056.21 2071.59,1035.41C2071.59,1014.62 2077.37,992.397 2100.58,980.361C2123.79,968.325 2154.19,974.22 2167.41,995.107C2180.62,1015.99 2173.91,1041.94 2173.91,1041.94L2103.58,1041.94ZM2145.76,1019.23C2145.73,1019.13 2144.92,998.832 2126.23,998.723C2105,998.599 2103.51,1020.24 2103.51,1020.24C2103.51,1020.24 2124.72,1020.41 2133.49,1020.41C2142.18,1020.41 2145.72,1019.24 2145.76,1019.23ZM2145.76,1019.23C2145.76,1019.23 2145.76,1019.23 2145.76,1019.23C2145.76,1019.23 2145.76,1019.23 2145.76,1019.23Z" style="fill:rgb(153,153,255);"/>
                    </g>
                    <g transform="matrix(0.637623,0,0,0.637623,1103.17,399.651)">
                        <path d="M2149.65,887.102L2149.65,873.942L2211.39,873.942L2210.98,874.723L2212.2,874.378L2296.43,1112.23L2243.5,1112.23C2243.5,1112.23 2235.72,1087.88 2225.26,1055.16L2137.22,1055.16C2127.4,1087.23 2119.9,1111.7 2119.9,1111.7L2071.45,1111.7L2149.65,887.102ZM2151.23,1009.38L2210.62,1009.38C2199.5,974.592 2187.96,938.502 2180.27,914.418C2175.1,931.369 2163.15,970.44 2151.23,1009.38Z" style="fill:rgb(153,153,255);"/>
                    </g>
                </g>
            </g>
        </g>
    </g>
</svg>
