<?xml version="1.0" encoding="UTF-8" standalone="no"?>
<!DOCTYPE svg PUBLIC "-//W3C//DTD SVG 1.1//EN" "http://www.w3.org/Graphics/SVG/1.1/DTD/svg11.dtd">
<svg width="100%" height="100%" viewBox="0 0 48 48" version="1.1" xmlns="http://www.w3.org/2000/svg" xmlns:xlink="http://www.w3.org/1999/xlink" xml:space="preserve" xmlns:serif="http://www.serif.com/" style="fill-rule:evenodd;clip-rule:evenodd;stroke-linejoin:round;stroke-miterlimit:2;">
    <g transform="matrix(1,0,0,1,-192.884,0)">
        <g id="Icons_CSS" transform="matrix(1,0,0,1,-125.839,0)">
            <rect x="318.723" y="0" width="48" height="48" style="fill:none;"/>
            <g transform="matrix(0.143263,0,0,0.143263,91.1592,-197)">
                <g transform="matrix(1,0,0,1,63.8844,-472.748)">
                    <path d="M1781.68,1865.84C1814.36,1865.84 1840.86,1892.33 1840.86,1925.01L1840.86,2108.27C1840.86,2140.95 1814.36,2167.44 1781.68,2167.44L1598.42,2167.44C1565.74,2167.44 1539.25,2140.95 1539.25,2108.27L1539.25,1925.01C1539.25,1892.33 1565.74,1865.84 1598.42,1865.84L1781.68,1865.84Z" style="fill:rgb(38,77,228);"/>
                </g>
                <g transform="matrix(34.6596,0,0,3.20004,-47284.1,-4797.81)">
                    <path d="M1413.56,1979.23L1412.61,1979.23L1412.61,1972.35C1412.61,1970.35 1412.6,1969.1 1412.58,1968.6C1412.56,1968.11 1412.52,1967.86 1412.45,1967.86C1412.37,1967.86 1412.32,1968.16 1412.3,1968.76C1412.28,1969.36 1412.27,1970.66 1412.27,1972.67L1412.27,1991.03C1412.27,1992.95 1412.28,1994.2 1412.3,1994.79C1412.32,1995.37 1412.37,1995.66 1412.44,1995.66C1412.51,1995.66 1412.56,1995.37 1412.58,1994.79C1412.6,1994.2 1412.61,1992.82 1412.61,1990.66L1412.61,1985.7L1413.56,1985.7L1413.56,1987.24C1413.56,1991.33 1413.53,1994.22 1413.48,1995.93C1413.43,1997.64 1413.31,1999.14 1413.13,2000.42C1412.94,2001.71 1412.72,2002.35 1412.45,2002.35C1412.17,2002.35 1411.94,2001.81 1411.76,2000.72C1411.58,1999.63 1411.46,1998.12 1411.41,1996.19C1411.35,1994.26 1411.32,1991.36 1411.32,1987.49L1411.32,1975.94C1411.32,1973.09 1411.33,1970.95 1411.35,1969.53C1411.36,1968.11 1411.42,1966.73 1411.51,1965.41C1411.6,1964.1 1411.72,1963.06 1411.88,1962.3C1412.04,1961.55 1412.22,1961.17 1412.42,1961.17C1412.7,1961.17 1412.93,1961.75 1413.12,1962.92C1413.3,1964.1 1413.42,1965.56 1413.48,1967.31C1413.53,1969.06 1413.56,1971.78 1413.56,1975.47L1413.56,1979.23Z" style="fill:white;fill-rule:nonzero;"/>
                    <path d="M1415.91,1973.96L1415.03,1973.96L1415.03,1971.03C1415.03,1969.66 1415.02,1968.79 1415,1968.42C1414.97,1968.04 1414.94,1967.86 1414.88,1967.86C1414.83,1967.86 1414.78,1968.11 1414.75,1968.61C1414.73,1969.12 1414.71,1969.88 1414.71,1970.91C1414.71,1972.23 1414.73,1973.22 1414.76,1973.89C1414.79,1974.55 1414.88,1975.36 1415.03,1976.3C1415.45,1979.02 1415.72,1981.25 1415.83,1982.99C1415.94,1984.74 1415.99,1987.54 1415.99,1991.42C1415.99,1994.23 1415.96,1996.31 1415.9,1997.64C1415.84,1998.98 1415.72,2000.1 1415.55,2001C1415.37,2001.9 1415.17,2002.35 1414.94,2002.35C1414.68,2002.35 1414.47,2001.83 1414.29,2000.79C1414.11,1999.75 1413.99,1998.42 1413.93,1996.81C1413.88,1995.2 1413.85,1992.91 1413.85,1989.95L1413.85,1987.36L1414.73,1987.36L1414.73,1992.17C1414.73,1993.65 1414.75,1994.61 1414.77,1995.03C1414.8,1995.45 1414.84,1995.66 1414.9,1995.66C1414.96,1995.66 1415.01,1995.4 1415.04,1994.86C1415.07,1994.32 1415.09,1993.52 1415.09,1992.47C1415.09,1990.14 1415.06,1988.62 1415,1987.9C1414.94,1987.18 1414.79,1985.99 1414.56,1984.31C1414.32,1982.62 1414.16,1981.39 1414.09,1980.62C1414.01,1979.86 1413.95,1978.8 1413.9,1977.45C1413.85,1976.1 1413.82,1974.38 1413.82,1972.28C1413.82,1969.25 1413.86,1967.04 1413.93,1965.63C1414,1964.24 1414.12,1963.14 1414.28,1962.35C1414.43,1961.56 1414.63,1961.17 1414.85,1961.17C1415.1,1961.17 1415.31,1961.6 1415.48,1962.46C1415.66,1963.32 1415.77,1964.41 1415.83,1965.72C1415.88,1967.03 1415.91,1969.26 1415.91,1972.4L1415.91,1973.96Z" style="fill:white;fill-rule:nonzero;"/>
                    <path d="M1418.3,1973.96L1417.42,1973.96L1417.42,1971.03C1417.42,1969.66 1417.41,1968.79 1417.38,1968.42C1417.36,1968.04 1417.32,1967.86 1417.27,1967.86C1417.21,1967.86 1417.17,1968.11 1417.14,1968.61C1417.11,1969.12 1417.1,1969.88 1417.1,1970.91C1417.1,1972.23 1417.11,1973.22 1417.15,1973.89C1417.18,1974.55 1417.27,1975.36 1417.41,1976.3C1417.84,1979.02 1418.1,1981.25 1418.21,1982.99C1418.32,1984.74 1418.38,1987.54 1418.38,1991.42C1418.38,1994.23 1418.35,1996.31 1418.29,1997.64C1418.23,1998.98 1418.11,2000.1 1417.93,2001C1417.76,2001.9 1417.56,2002.35 1417.33,2002.35C1417.07,2002.35 1416.85,2001.83 1416.67,2000.79C1416.5,1999.75 1416.38,1998.42 1416.32,1996.81C1416.27,1995.2 1416.24,1992.91 1416.24,1989.95L1416.24,1987.36L1417.12,1987.36L1417.12,1992.17C1417.12,1993.65 1417.13,1994.61 1417.16,1995.03C1417.18,1995.45 1417.23,1995.66 1417.29,1995.66C1417.35,1995.66 1417.4,1995.4 1417.43,1994.86C1417.46,1994.32 1417.48,1993.52 1417.48,1992.47C1417.48,1990.14 1417.45,1988.62 1417.39,1987.9C1417.33,1987.18 1417.18,1985.99 1416.94,1984.31C1416.71,1982.62 1416.55,1981.39 1416.48,1980.62C1416.4,1979.86 1416.34,1978.8 1416.29,1977.45C1416.24,1976.1 1416.21,1974.38 1416.21,1972.28C1416.21,1969.25 1416.25,1967.04 1416.32,1965.63C1416.39,1964.24 1416.5,1963.14 1416.66,1962.35C1416.82,1961.56 1417.01,1961.17 1417.24,1961.17C1417.49,1961.17 1417.7,1961.6 1417.87,1962.46C1418.04,1963.32 1418.16,1964.41 1418.21,1965.72C1418.27,1967.03 1418.3,1969.26 1418.3,1972.4L1418.3,1973.96Z" style="fill:white;fill-rule:nonzero;"/>
                </g>
            </g>
        </g>
    </g>
</svg>
