<?xml version="1.0" encoding="UTF-8" standalone="no"?>
<!DOCTYPE svg PUBLIC "-//W3C//DTD SVG 1.1//EN" "http://www.w3.org/Graphics/SVG/1.1/DTD/svg11.dtd">
<svg width="100%" height="100%" viewBox="0 0 48 48" version="1.1" xmlns="http://www.w3.org/2000/svg" xmlns:xlink="http://www.w3.org/1999/xlink" xml:space="preserve" xmlns:serif="http://www.serif.com/" style="fill-rule:evenodd;clip-rule:evenodd;stroke-linejoin:round;stroke-miterlimit:2;">
    <g transform="matrix(1,0,0,1,-391.343,-64.2166)">
        <g id="Icons_InDesign" transform="matrix(1,0,0,1,72.6201,64.2166)">
            <rect x="318.723" y="0" width="48" height="48" style="fill:none;"/>
            <g transform="matrix(0.143263,0,0,0.143263,-32.3504,-196.984)">
                <g transform="matrix(1,0,0,1,928.027,-472.748)">
                    <path d="M1781.68,1865.84C1814.36,1865.84 1840.86,1892.33 1840.86,1925.01L1840.86,2108.27C1840.86,2140.95 1814.36,2167.44 1781.68,2167.44L1598.42,2167.44C1565.74,2167.44 1539.25,2140.95 1539.25,2108.27L1539.25,1925.01C1539.25,1892.33 1565.74,1865.84 1598.42,1865.84L1781.68,1865.84Z" style="fill:rgb(73,2,31);"/>
                </g>
                <g transform="matrix(1.37122,0,0,1.37122,1806.4,-1180.96)">
                    <g transform="matrix(1.0212,0,0,1.00786,-144.061,-16.1105)">
                        <rect x="659.637" y="1934.03" width="24.468" height="116.049" style="fill:rgb(255,51,102);"/>
                    </g>
                    <g transform="matrix(1.0212,0,0,1.04232,-44.2763,-92.6072)">
                        <path d="M684.105,2050.08C684.105,2050.08 673.99,2056.66 650.815,2056.66C627.641,2056.66 604.25,2048.99 604.25,2014.43C604.25,1982.02 629.16,1967.25 659.637,1968.76L659.637,1934.03L684.105,1934.03L684.105,2050.08ZM659.637,1988.92C657.627,1988.75 655.188,1988.61 652.42,1988.54C644.342,1988.35 628.567,1993.13 628.567,2011.34C628.567,2029.55 638.152,2036.55 653.644,2036.55C655.903,2036.55 657.89,2036.49 659.637,2036.39L659.637,1988.92Z" style="fill:rgb(255,51,102);"/>
                    </g>
                </g>
            </g>
        </g>
    </g>
</svg>
