<?xml version="1.0" encoding="UTF-8" standalone="no"?>
<!DOCTYPE svg PUBLIC "-//W3C//DTD SVG 1.1//EN" "http://www.w3.org/Graphics/SVG/1.1/DTD/svg11.dtd">
<svg width="100%" height="100%" viewBox="0 0 48 48" version="1.1" xmlns="http://www.w3.org/2000/svg" xmlns:xlink="http://www.w3.org/1999/xlink" xml:space="preserve" xmlns:serif="http://www.serif.com/" style="fill-rule:evenodd;clip-rule:evenodd;stroke-linejoin:round;stroke-miterlimit:2;">
    <g transform="matrix(1,0,0,1,-524.961,0)">
        <g id="Icons_Figma" transform="matrix(1,0,0,1,206.238,0)">
            <rect x="318.723" y="0" width="48" height="48" style="fill:none;"/>
            <g transform="matrix(0.143263,0,0,0.143263,100.601,-264.727)">
                <path d="M1781.68,1865.84C1814.36,1865.84 1840.86,1892.33 1840.86,1925.01L1840.86,2108.27C1840.86,2140.95 1814.36,2167.44 1781.68,2167.44L1598.42,2167.44C1565.74,2167.44 1539.25,2140.95 1539.25,2108.27L1539.25,1925.01C1539.25,1892.33 1565.74,1865.84 1598.42,1865.84L1781.68,1865.84Z"/>
                <g transform="matrix(0.843903,0,0,0.843903,130.522,886.369)">
                    <g transform="matrix(1.19907,0,0,1.19907,-36.2198,-256.841)">
                        <circle cx="1612.37" cy="1331.18" r="40.97" style="fill:rgb(26,188,254);"/>
                    </g>
                    <g transform="matrix(1.04592,0,0,1,209.182,98.2519)">
                        <path d="M1566.86,1290.21L1566.86,1337.08C1566.86,1350.71 1561.69,1363.78 1552.47,1373.41C1543.26,1383.05 1530.77,1388.46 1517.74,1388.46C1517.01,1388.46 1516.29,1388.46 1515.57,1388.46C1489.63,1388.46 1468.61,1366.47 1468.61,1339.35C1468.61,1339.34 1468.61,1339.33 1468.61,1339.33C1468.61,1312.2 1489.63,1290.21 1515.57,1290.21C1540.83,1290.21 1566.86,1290.21 1566.86,1290.21Z" style="fill:rgb(10,207,131);"/>
                    </g>
                    <g transform="matrix(1.09025,0,0,1,134.773,0)">
                        <path d="M1571.4,1290.21L1571.4,1388.46L1522.19,1388.46C1497.31,1388.46 1477.14,1366.47 1477.14,1339.35C1477.14,1339.34 1477.14,1339.33 1477.14,1339.33C1477.14,1312.2 1497.31,1290.21 1522.19,1290.21C1546.43,1290.21 1571.4,1290.21 1571.4,1290.21Z" style="fill:rgb(162,89,255);"/>
                    </g>
                    <g transform="matrix(1.09025,0,0,1,134.773,-98.2519)">
                        <path d="M1571.4,1290.21L1571.4,1388.46L1522.19,1388.46C1497.31,1388.46 1477.14,1366.47 1477.14,1339.35C1477.14,1339.34 1477.14,1339.33 1477.14,1339.33C1477.14,1312.2 1497.31,1290.21 1522.19,1290.21C1546.43,1290.21 1571.4,1290.21 1571.4,1290.21Z" style="fill:rgb(242,78,30);"/>
                    </g>
                    <g transform="matrix(-1.09025,-1.33518e-16,1.22465e-16,-1,3561.22,2580.42)">
                        <path d="M1571.4,1290.21L1571.4,1388.46L1522.19,1388.46C1497.31,1388.46 1477.14,1366.47 1477.14,1339.35C1477.14,1339.34 1477.14,1339.33 1477.14,1339.33C1477.14,1312.2 1497.31,1290.21 1522.19,1290.21C1546.43,1290.21 1571.4,1290.21 1571.4,1290.21Z" style="fill:rgb(255,114,98);"/>
                    </g>
                </g>
            </g>
        </g>
    </g>
</svg>
