<?xml version="1.0" encoding="UTF-8" standalone="no"?>
<!DOCTYPE svg PUBLIC "-//W3C//DTD SVG 1.1//EN" "http://www.w3.org/Graphics/SVG/1.1/DTD/svg11.dtd">
<svg width="100%" height="100%" viewBox="0 0 48 48" version="1.1" xmlns="http://www.w3.org/2000/svg" xmlns:xlink="http://www.w3.org/1999/xlink" xml:space="preserve" xmlns:serif="http://www.serif.com/" style="fill-rule:evenodd;clip-rule:evenodd;stroke-linejoin:round;stroke-miterlimit:2;">
    <g transform="matrix(1,0,0,1,-458.152,0)">
        <g id="Icons_VSCode" transform="matrix(1,0,0,1,139.429,0)">
            <rect x="318.723" y="0" width="48" height="48" style="fill:none;"/>
            <g transform="matrix(0.143263,0,0,0.143263,-84.2383,-136.14)">
                <g transform="matrix(1,0,0,1,1290.21,-897.557)">
                    <path d="M1781.68,1865.84C1814.36,1865.84 1840.86,1892.33 1840.86,1925.01L1840.86,2108.27C1840.86,2140.95 1814.36,2167.44 1781.68,2167.44L1598.42,2167.44C1565.74,2167.44 1539.25,2140.95 1539.25,2108.27L1539.25,1925.01C1539.25,1892.33 1565.74,1865.84 1598.42,1865.84L1781.68,1865.84Z"/>
                </g>
                <g>
                    <g transform="matrix(0.726019,0.000181708,0.000181708,-0.726019,952.677,1480.86)">
                        <path d="M2855.14,661.407L2620.26,446.987C2617.93,444.857 2616.56,441.875 2616.45,438.719C2616.35,435.562 2617.53,432.498 2619.72,430.223L2637.21,412.068C2642.78,406.284 2651.82,405.624 2658.17,410.536L2878.99,581.245L2881.91,630.425L2885.03,631.182C2885.03,631.182 2895.56,642.885 2890.76,649.079C2890.5,649.406 2879.21,658.598 2871.23,660.669C2863.98,662.55 2855.14,661.407 2855.14,661.407Z" style="fill:rgb(0,119,185);"/>
                    </g>
                    <g transform="matrix(0.726019,0.000181708,-0.000181708,0.726019,952.857,759.204)">
                        <path d="M2855.14,661.407L2620.26,446.987C2617.93,444.857 2616.56,441.875 2616.45,438.719C2616.35,435.562 2617.53,432.498 2619.72,430.223L2637.21,412.068C2642.78,406.284 2651.82,405.624 2658.17,410.536L2878.99,581.245L2881.91,630.425L2885.03,631.182C2885.03,631.182 2895.56,642.885 2890.76,649.079C2890.5,649.406 2879.21,658.598 2871.23,660.669C2863.98,662.55 2855.14,661.407 2855.14,661.407Z" style="fill:rgb(0,135,208);"/>
                    </g>
                    <g transform="matrix(0.726019,0.000181708,-0.000181708,0.726019,917.882,759.195)">
                        <path d="M2944.24,345.23C2979.77,363.52 3002.11,400.135 3002.11,440.101C3002.13,466.836 3002.13,498.086 3002.13,527.013C3002.13,582.247 2971.87,633.042 2923.3,659.346C2923.3,659.351 2923.3,659.352 2923.3,659.352C2915.79,663.419 2903.8,660.193 2903.8,660.193C2903.8,660.193 2919.28,660.175 2919.28,641.924C2919.28,623.672 2918.39,501.083 2918.39,501.083L2918.39,492.912C2918.39,492.912 2919.28,370.322 2919.28,352.071C2919.28,333.819 2903.8,333.801 2903.8,333.801C2903.8,333.801 2915.79,330.575 2923.3,334.642C2927.62,336.981 2935.3,340.838 2944.24,345.23Z" style="fill:rgb(0,165,242);"/>
                    </g>
                </g>
            </g>
        </g>
    </g>
</svg>
