<?xml version="1.0" encoding="UTF-8" standalone="no"?>
<!DOCTYPE svg PUBLIC "-//W3C//DTD SVG 1.1//EN" "http://www.w3.org/Graphics/SVG/1.1/DTD/svg11.dtd">
<svg width="100%" height="100%" viewBox="0 0 48 48" version="1.1" xmlns="http://www.w3.org/2000/svg" xmlns:xlink="http://www.w3.org/1999/xlink" xml:space="preserve" xmlns:serif="http://www.serif.com/" style="fill-rule:evenodd;clip-rule:evenodd;stroke-linejoin:round;stroke-miterlimit:2;">
    <g transform="matrix(1,0,0,1,-257.253,0)">
        <g id="Icons_Javascript" transform="matrix(1,0,0,1,-61.4696,0)">
            <rect x="318.723" y="0" width="48" height="48" style="fill:none;"/>
            <g transform="matrix(0.143263,0,0,0.143263,142.517,-245.635)">
                <g transform="matrix(1,0,0,1,-292.581,-133.265)">
                    <path d="M1781.68,1865.84C1814.36,1865.84 1840.86,1892.33 1840.86,1925.01L1840.86,2108.27C1840.86,2140.95 1814.36,2167.44 1781.68,2167.44L1598.42,2167.44C1565.74,2167.44 1539.25,2140.95 1539.25,2108.27L1539.25,1925.01C1539.25,1892.33 1565.74,1865.84 1598.42,1865.84L1781.68,1865.84Z" style="fill:rgb(245,222,24);"/>
                </g>
                <g transform="matrix(13.567,0,0,2.96218,-16493.4,-3409.32)">
                    <g>
                        <path d="M1318.47,1789.77L1320.54,1789.77L1320.54,1809.22C1320.54,1813.31 1320.47,1816.42 1320.33,1818.55C1320.2,1820.68 1319.93,1822.49 1319.52,1823.97C1319.11,1825.45 1318.59,1826.19 1317.95,1826.19C1317.27,1826.19 1316.75,1825.7 1316.38,1824.73C1316.01,1823.75 1315.72,1822.32 1315.52,1820.44C1315.32,1818.56 1315.2,1816.24 1315.16,1813.47L1317.14,1812.03C1317.14,1813.61 1317.16,1814.78 1317.21,1815.55C1317.26,1816.31 1317.34,1816.93 1317.46,1817.4C1317.54,1817.71 1317.65,1817.87 1317.8,1817.87C1318.03,1817.87 1318.2,1817.41 1318.31,1816.49C1318.41,1815.57 1318.47,1814.02 1318.47,1811.84L1318.47,1789.77Z" style="fill-rule:nonzero;"/>
                        <path d="M1321.55,1813.72L1323.52,1813.06C1323.56,1814.77 1323.65,1816.07 1323.78,1816.96C1323.99,1818.41 1324.3,1819.14 1324.69,1819.14C1324.98,1819.14 1325.21,1818.77 1325.37,1818.03C1325.53,1817.28 1325.61,1816.43 1325.61,1815.45C1325.61,1814.52 1325.54,1813.69 1325.38,1812.96C1325.23,1812.23 1324.88,1811.54 1324.33,1810.88C1323.42,1809.79 1322.77,1808.35 1322.39,1806.54C1322,1804.73 1321.8,1802.43 1321.8,1799.63C1321.8,1797.79 1321.9,1796.05 1322.1,1794.42C1322.3,1792.78 1322.6,1791.5 1323,1790.56C1323.4,1789.62 1323.95,1789.15 1324.64,1789.15C1325.5,1789.15 1326.15,1790.01 1326.6,1791.71C1327.05,1793.41 1327.31,1796.11 1327.4,1799.82L1325.45,1800.43C1325.4,1798.82 1325.29,1797.65 1325.12,1796.92C1324.96,1796.19 1324.73,1795.82 1324.44,1795.82C1324.2,1795.82 1324.02,1796.09 1323.9,1796.64C1323.78,1797.18 1323.71,1797.85 1323.71,1798.63C1323.71,1799.2 1323.76,1799.71 1323.86,1800.17C1323.96,1800.64 1324.19,1801.08 1324.56,1801.48C1325.46,1802.53 1326.11,1803.58 1326.5,1804.65C1326.89,1805.71 1327.17,1807.03 1327.35,1808.61C1327.53,1810.19 1327.62,1811.96 1327.62,1813.91C1327.62,1816.21 1327.5,1818.32 1327.26,1820.26C1327.02,1822.19 1326.69,1823.66 1326.27,1824.66C1325.84,1825.67 1325.31,1826.17 1324.66,1826.17C1323.52,1826.17 1322.73,1825 1322.3,1822.65C1321.86,1820.31 1321.61,1817.33 1321.55,1813.72Z" style="fill-rule:nonzero;"/>
                    </g>
                </g>
            </g>
        </g>
    </g>
</svg>
