<?xml version="1.0" encoding="UTF-8" standalone="no"?>
<!DOCTYPE svg PUBLIC "-//W3C//DTD SVG 1.1//EN" "http://www.w3.org/Graphics/SVG/1.1/DTD/svg11.dtd">
<svg width="100%" height="100%" viewBox="0 0 48 48" version="1.1" xmlns="http://www.w3.org/2000/svg" xmlns:xlink="http://www.w3.org/1999/xlink" xml:space="preserve" xmlns:serif="http://www.serif.com/" style="fill-rule:evenodd;clip-rule:evenodd;stroke-linejoin:round;stroke-miterlimit:2;">
    <g transform="matrix(1,0,0,1,-0.121293,-64.2166)">
        <g id="Icons_Windows" transform="matrix(1,0,0,1,-318.601,64.2166)">
            <rect x="318.723" y="0" width="48" height="48" style="fill:none;"/>
            <g transform="matrix(0.143263,0,0,0.143263,90.4008,-245.619)">
                <g>
                    <g transform="matrix(1,0,0,1,71.2008,-133.265)">
                        <path d="M1781.68,1865.84C1814.36,1865.84 1840.86,1892.33 1840.86,1925.01L1840.86,2108.27C1840.86,2140.95 1814.36,2167.44 1781.68,2167.44L1598.42,2167.44C1565.74,2167.44 1539.25,2140.95 1539.25,2108.27L1539.25,1925.01C1539.25,1892.33 1565.74,1865.84 1598.42,1865.84L1781.68,1865.84Z" style="fill:rgb(0,120,212);"/>
                    </g>
                    <g transform="matrix(1,0,0,1,-515.434,1060.22)">
                        <rect x="2168.64" y="827.965" width="102.42" height="102.42" style="fill:white;"/>
                        <g transform="matrix(1,0,0,1,0,-112.039)">
                            <rect x="2168.64" y="827.965" width="102.42" height="102.42" style="fill:white;"/>
                        </g>
                        <g transform="matrix(1,0,0,1,113.674,0)">
                            <rect x="2168.64" y="827.965" width="102.42" height="102.42" style="fill:white;"/>
                        </g>
                        <g transform="matrix(1,0,0,1,113.674,-112.039)">
                            <rect x="2168.64" y="827.965" width="102.42" height="102.42" style="fill:white;"/>
                        </g>
                    </g>
                </g>
            </g>
        </g>
    </g>
</svg>
